<?xml version="1.0" encoding="UTF-8" standalone="no"?>
<!-- ClipArt by DimpleMathew (https://openclipart.org/user-detail/DimpleMathew) -->
<svg
   xmlns:dc="http://purl.org/dc/elements/1.1/"
   xmlns:cc="http://creativecommons.org/ns#"
   xmlns:rdf="http://www.w3.org/1999/02/22-rdf-syntax-ns#"
   xmlns:svg="http://www.w3.org/2000/svg"
   xmlns="http://www.w3.org/2000/svg"
   id="svg44"
   version="1.1"
   height="178"
   width="179">
  <title
     id="title4668">Smiley</title>
  <metadata
     id="metadata50">
    <rdf:RDF>
      <cc:Work
         rdf:about="">
        <dc:format>image/svg+xml</dc:format>
        <dc:type
           rdf:resource="http://purl.org/dc/dcmitype/StillImage" />
        <dc:title>Smiley</dc:title>
        <dc:creator>
          <cc:Agent>
            <dc:title>DimpleMathew</dc:title>
          </cc:Agent>
        </dc:creator>
        <dc:publisher>
          <cc:Agent>
            <dc:title>Openclipart.org</dc:title>
          </cc:Agent>
        </dc:publisher>
        <dc:identifier>https://openclipart.org/</dc:identifier>
        <dc:source>https://openclipart.org/user-detail/DimpleMathew</dc:source>
        <dc:contributor>
          <cc:Agent>
            <dc:title>https://openclipart.org/detail/282315/smiley</dc:title>
          </cc:Agent>
        </dc:contributor>
        <dc:subject>
          <rdf:Bag>
            <rdf:li>smiley</rdf:li>
            <rdf:li>emoticon</rdf:li>
            <rdf:li>emoji</rdf:li>
          </rdf:Bag>
        </dc:subject>
        <dc:description>smiley </dc:description>
        <cc:license
           rdf:resource="http://creativecommons.org/publicdomain/zero/1.0/" />
      </cc:Work>
      <cc:License
         rdf:about="http://creativecommons.org/publicdomain/zero/1.0/">
        <cc:permits
           rdf:resource="http://creativecommons.org/ns#Reproduction" />
        <cc:permits
           rdf:resource="http://creativecommons.org/ns#Distribution" />
        <cc:permits
           rdf:resource="http://creativecommons.org/ns#DerivativeWorks" />
      </cc:License>
    </rdf:RDF>
  </metadata>
  <defs
     id="defs48" />
  <!-- Created with Vector Paint - http://www.vectorpaint.yaks.com/ https://chrome.google.com/webstore/detail/hnbpdiengicdefcjecjbnjnoifekhgdo -->
  <g
     transform="translate(-312.34375,-136)"
     id="g4666">
    <path
       style="opacity:1;fill:#ebeb1a;fill-opacity:1;fill-rule:nonzero;stroke:#222222;stroke-width:2;stroke-linecap:butt;stroke-linejoin:round;stroke-dasharray:none;stroke-opacity:1"
       class=""
       id="svg_1"
       d="m 318.34375,225 c 0,-45.85635 37.3674,-83 83.5,-83 46.1326,0 83.5,37.14365 83.5,83 0,45.85635 -37.3674,83 -83.5,83 -46.1326,0 -83.5,-37.14365 -83.5,-83 z"
       stroke-dashoffset="" />
    <path
       style="opacity:1;fill:#ffffff;fill-opacity:1;fill-rule:nonzero;stroke:#222222;stroke-width:2;stroke-linecap:butt;stroke-linejoin:round;stroke-dasharray:none;stroke-opacity:1"
       class=""
       id="svg_3"
       d="m 354.53125,196.40625 c 0,-12.70718 7.16022,-23 16,-23 8.83978,0 16,10.29282 16,23 0,12.70718 -7.16022,23 -16,23 -8.83978,0 -16,-10.29282 -16,-23 z"
       stroke-dashoffset="" />
    <path
       style="opacity:1;fill:#ffffff;fill-opacity:1;fill-rule:nonzero;stroke:#222222;stroke-width:2;stroke-linecap:butt;stroke-linejoin:round;stroke-dasharray:none;stroke-opacity:1"
       class=""
       id="svg_5"
       d="m 413.75,197.78125 c 0,-12.98343 6.93646,-23.5 15.5,-23.5 8.56354,0 15.5,10.51657 15.5,23.5 0,12.98343 -6.93646,23.5 -15.5,23.5 -8.56354,0 -15.5,-10.51657 -15.5,-23.5 z"
       stroke-dashoffset="" />
    <polyline
       style="color:#000000;fill:none;fill-rule:nonzero;stroke:#222222;stroke-width:2;stroke-linejoin:round"
       points="436.85625575906613,190.03125853906405 436.85625575906613,190.03125853906405 "
       id="svg_10"
       stroke-dashoffset="" />
    <polyline
       class=""
       style="color:#000000;fill:#000000;fill-opacity:1;fill-rule:nonzero;stroke:#222222;stroke-width:2;stroke-linejoin:round"
       points="363.41875411761004,215.81250911531993 363.41875411761004,215.81250911531993 363.41875411761004,215.81250911531993 362.63750410014774,215.81250911531993 362.63750410014774,215.03125909785763 361.85625408268544,215.03125909785763 361.85625408268544,214.25000908039533 361.85625408268544,213.46875906293303 361.85625408268544,212.68750904547073 361.85625408268544,211.90625902800844 361.07500406522314,211.90625902800844 361.07500406522314,211.12500901054614 361.07500406522314,210.34375899308384 361.07500406522314,209.56250897562154 361.07500406522314,208.78125895815924 361.07500406522314,208.00000894069694 361.07500406522314,207.21875892323465 361.07500406522314,206.43750890577235 361.07500406522314,205.65625888831005 361.07500406522314,204.87500887084775 361.07500406522314,204.0937588533854 361.07500406522314,203.3125088359231 361.07500406522314,202.5312588184608 361.07500406522314,201.7500088009985 361.07500406522314,200.9687587835362 361.07500406522314,200.1875087660739 361.07500406522314,199.40625874861163 361.07500406522314,198.62500873114934 361.07500406522314,197.84375871368704 361.07500406522314,197.06250869622474 361.07500406522314,196.28125867876244 361.85625408268544,196.28125867876244 361.85625408268544,195.50000866130014 362.63750410014774,195.50000866130014 363.41875411761004,195.50000866130014 363.41875411761004,194.71875864383784 364.20000413507233,194.71875864383784 364.98125415253463,194.71875864383784 364.98125415253463,193.93750862637555 365.76250416999693,193.93750862637555 365.76250416999693,193.15625860891325 366.54375418745923,193.15625860891325 367.3250042049215,193.15625860891325 368.1062542223838,193.15625860891325 368.8875042398461,193.15625860891325 368.8875042398461,192.37500859145095 369.6687542573084,192.37500859145095 370.4500042747707,192.37500859145095 371.231254292233,192.37500859145095 372.0125043096953,192.37500859145095 372.7937543271576,192.37500859145095 373.5750043446199,192.37500859145095 374.3562543620822,192.37500859145095 375.1375043795445,192.37500859145095 375.1375043795445,193.15625860891325 375.1375043795445,193.93750862637555 375.1375043795445,194.71875864383784 375.91875439700686,194.71875864383784 375.91875439700686,195.50000866130014 375.91875439700686,196.28125867876244 375.91875439700686,197.06250869622474 376.70000441446916,197.06250869622474 376.70000441446916,197.84375871368704 377.48125443193146,197.84375871368704 377.48125443193146,198.62500873114934 377.48125443193146,199.40625874861163 377.48125443193146,200.1875087660739 377.48125443193146,200.9687587835362 377.48125443193146,201.7500088009985 377.48125443193146,202.5312588184608 377.48125443193146,203.3125088359231 377.48125443193146,204.0937588533854 377.48125443193146,204.87500887084775 377.48125443193146,205.65625888831005 377.48125443193146,206.43750890577235 377.48125443193146,207.21875892323465 377.48125443193146,208.00000894069694 377.48125443193146,208.78125895815924 377.48125443193146,209.56250897562154 377.48125443193146,210.34375899308384 377.48125443193146,211.12500901054614 377.48125443193146,211.90625902800844 377.48125443193146,212.68750904547073 377.48125443193146,213.46875906293303 377.48125443193146,214.25000908039533 377.48125443193146,215.03125909785763 377.48125443193146,215.81250911531993 377.48125443193146,216.59375913278222 376.70000441446916,216.59375913278222 375.91875439700686,216.59375913278222 375.1375043795445,216.59375913278222 "
       id="svg_13"
       stroke-dashoffset="" />
    <polyline
       class=""
       style="color:#000000;fill:#000000;fill-opacity:1;fill-rule:nonzero;stroke:#222222;stroke-width:2;stroke-linejoin:round"
       points="422.79375544474476,217.37500915024452 422.79375544474476,217.37500915024452 422.79375544474476,217.37500915024452 422.01250542728246,217.37500915024452 421.23125540982016,217.37500915024452 421.23125540982016,216.59375913278222 420.45000539235787,216.59375913278222 420.45000539235787,215.81250911531993 420.45000539235787,215.03125909785763 420.45000539235787,214.25000908039533 420.45000539235787,213.46875906293303 420.45000539235787,212.68750904547073 420.45000539235787,211.90625902800844 420.45000539235787,211.12500901054614 420.45000539235787,210.34375899308384 420.45000539235787,209.56250897562154 420.45000539235787,208.78125895815924 420.45000539235787,208.00000894069694 420.45000539235787,207.21875892323465 420.45000539235787,206.43750890577235 420.45000539235787,205.65625888831005 420.45000539235787,204.87500887084775 420.45000539235787,204.0937588533854 420.45000539235787,203.3125088359231 420.45000539235787,202.5312588184608 420.45000539235787,201.7500088009985 420.45000539235787,200.9687587835362 420.45000539235787,200.1875087660739 420.45000539235787,199.40625874861163 420.45000539235787,198.62500873114934 420.45000539235787,197.84375871368704 420.45000539235787,197.06250869622474 421.23125540982016,196.28125867876244 422.01250542728246,195.50000866130014 422.79375544474476,195.50000866130014 422.79375544474476,194.71875864383784 423.57500546220706,194.71875864383784 423.57500546220706,193.93750862637555 424.35625547966936,193.93750862637555 425.13750549713166,193.93750862637555 425.91875551459395,193.93750862637555 426.70000553205625,193.93750862637555 427.48125554951855,193.93750862637555 428.26250556698085,193.93750862637555 429.04375558444315,193.93750862637555 429.82500560190545,193.93750862637555 430.60625561936774,193.93750862637555 431.38750563683004,193.93750862637555 432.16875565429234,193.93750862637555 432.95000567175464,193.93750862637555 433.73125568921694,193.93750862637555 433.73125568921694,194.71875864383784 434.51250570667924,195.50000866130014 435.29375572414153,195.50000866130014 435.29375572414153,196.28125867876244 436.07500574160383,196.28125867876244 436.07500574160383,197.06250869622474 436.85625575906613,197.06250869622474 436.85625575906613,197.84375871368704 436.85625575906613,198.62500873114934 436.85625575906613,199.40625874861163 436.85625575906613,200.1875087660739 436.85625575906613,200.9687587835362 436.85625575906613,201.7500088009985 436.85625575906613,202.5312588184608 436.85625575906613,203.3125088359231 436.85625575906613,204.0937588533854 436.85625575906613,204.87500887084775 436.85625575906613,205.65625888831005 436.85625575906613,206.43750890577235 436.85625575906613,207.21875892323465 436.85625575906613,208.00000894069694 436.85625575906613,208.78125895815924 436.85625575906613,209.56250897562154 436.85625575906613,210.34375899308384 436.85625575906613,211.12500901054614 436.85625575906613,211.90625902800844 436.85625575906613,212.68750904547073 436.85625575906613,213.46875906293303 436.85625575906613,214.25000908039533 436.85625575906613,215.03125909785763 436.85625575906613,215.81250911531993 436.85625575906613,216.59375913278222 436.85625575906613,217.37500915024452 436.85625575906613,218.15625916770682 "
       id="svg_14"
       stroke-dashoffset="" />
    <polyline
       style="color:#000000;fill:none;fill-rule:nonzero;stroke:#222222;stroke-width:2;stroke-linejoin:round"
       points="366.54375418745923,254.09375997097257 366.54375418745923,254.09375997097257 366.54375418745923,254.09375997097257 366.54375418745923,254.87500998843487 367.3250042049215,254.87500998843487 367.3250042049215,255.65626000589717 368.1062542223838,255.65626000589717 368.1062542223838,256.43751002335944 368.1062542223838,257.21876004082173 368.8875042398461,257.21876004082173 369.6687542573084,257.21876004082173 369.6687542573084,258.00001005828403 370.4500042747707,258.00001005828403 370.4500042747707,258.78126007574633 371.231254292233,258.78126007574633 371.231254292233,259.56251009320863 371.231254292233,260.3437601106709 372.0125043096953,260.3437601106709 372.7937543271576,260.3437601106709 372.7937543271576,261.1250101281332 373.5750043446199,261.1250101281332 374.3562543620822,261.1250101281332 374.3562543620822,261.9062601455955 375.1375043795445,261.9062601455955 375.91875439700686,261.9062601455955 375.91875439700686,262.6875101630578 376.70000441446916,262.6875101630578 376.70000441446916,263.4687601805201 377.48125443193146,263.4687601805201 378.26250444939376,263.4687601805201 379.04375446685606,263.4687601805201 379.04375446685606,264.2500101979824 379.82500448431836,264.2500101979824 380.60625450178065,264.2500101979824 380.60625450178065,265.0312602154447 381.38750451924295,265.0312602154447 382.16875453670525,265.0312602154447 382.16875453670525,265.812510232907 382.95000455416755,265.812510232907 382.95000455416755,266.5937602503693 383.73125457162985,266.5937602503693 384.51250458909215,266.5937602503693 384.51250458909215,267.3750102678316 385.29375460655444,267.3750102678316 386.07500462401674,267.3750102678316 386.85625464147904,267.3750102678316 387.63750465894134,267.3750102678316 387.63750465894134,268.1562602852939 388.41875467640364,268.1562602852939 389.20000469386594,268.1562602852939 389.98125471132823,268.1562602852939 390.76250472879053,268.1562602852939 391.54375474625283,268.1562602852939 392.3250047637151,268.1562602852939 393.1062547811774,268.1562602852939 393.8875047986397,268.1562602852939 394.668754816102,268.1562602852939 395.4500048335643,268.1562602852939 396.2312548510266,268.1562602852939 397.0125048684889,268.1562602852939 397.7937548859512,268.1562602852939 398.5750049034135,268.1562602852939 399.3562549208758,268.1562602852939 400.1375049383381,268.1562602852939 400.9187549558004,268.1562602852939 401.7000049732627,268.1562602852939 402.481254990725,268.1562602852939 403.2625050081873,268.1562602852939 404.0437550256496,268.1562602852939 404.8250050431119,268.1562602852939 405.6062550605742,268.1562602852939 406.3875050780365,268.1562602852939 407.1687550954988,268.1562602852939 407.9500051129611,268.1562602852939 408.7312551304234,268.1562602852939 409.5125051478857,268.1562602852939 409.5125051478857,267.3750102678316 410.293755165348,267.3750102678316 411.0750051828103,267.3750102678316 411.0750051828103,266.5937602503693 411.0750051828103,265.812510232907 411.8562552002726,265.812510232907 412.6375052177349,265.812510232907 412.6375052177349,265.0312602154447 413.4187552351972,265.0312602154447 414.2000052526595,265.0312602154447 414.2000052526595,264.2500101979824 414.9812552701218,264.2500101979824 414.9812552701218,263.4687601805201 415.7625052875841,263.4687601805201 416.5437553050464,262.6875101630578 417.3250053225087,262.6875101630578 417.3250053225087,261.9062601455955 418.10625533997097,261.9062601455955 418.10625533997097,261.1250101281332 418.88750535743327,261.1250101281332 418.88750535743327,260.3437601106709 419.66875537489557,260.3437601106709 419.66875537489557,259.56251009320863 420.45000539235787,259.56251009320863 420.45000539235787,258.78126007574633 421.23125540982016,258.78126007574633 421.23125540982016,258.00001005828403 422.01250542728246,258.00001005828403 422.01250542728246,257.21876004082173 422.01250542728246,256.43751002335944 422.79375544474476,256.43751002335944 422.79375544474476,255.65626000589717 423.57500546220706,255.65626000589717 423.57500546220706,254.87500998843487 424.35625547966936,254.87500998843487 424.35625547966936,254.09375997097257 425.13750549713166,254.09375997097257 425.13750549713166,253.31250995351027 425.91875551459395,253.31250995351027 426.70000553205625,253.31250995351027 427.48125554951855,253.31250995351027 427.48125554951855,252.53125993604797 428.26250556698085,252.53125993604797 429.04375558444315,252.53125993604797 429.82500560190545,252.53125993604797 "
       id="svg_15"
       stroke-dashoffset="" />
    <polyline
       style="color:#000000;fill:none;fill-rule:nonzero;stroke:#222222;stroke-width:2;stroke-linejoin:round"
       points="428.26250556698085,240.0312596566512 428.26250556698085,240.8125096741135 428.26250556698085,241.5937596915758 428.26250556698085,242.3750097090381 428.26250556698085,243.1562597265004 428.26250556698085,243.9375097439627 428.26250556698085,244.718759761425 428.26250556698085,245.5000097788873 428.26250556698085,246.2812597963496 428.26250556698085,247.0625098138119 428.26250556698085,247.84375983127418 428.26250556698085,248.62500984873648 428.26250556698085,249.40625986619878 428.26250556698085,250.18750988366108 428.26250556698085,250.96875990112338 428.26250556698085,251.75000991858568 428.26250556698085,252.53125993604797 428.26250556698085,253.31250995351027 428.26250556698085,254.09375997097257 428.26250556698085,254.87500998843487 429.04375558444315,254.87500998843487 429.04375558444315,255.65626000589717 429.82500560190545,255.65626000589717 430.60625561936774,255.65626000589717 431.38750563683004,255.65626000589717 432.16875565429234,255.65626000589717 432.16875565429234,256.43751002335944 432.95000567175464,256.43751002335944 433.73125568921694,256.43751002335944 434.51250570667924,256.43751002335944 435.29375572414153,256.43751002335944 436.07500574160383,256.43751002335944 436.85625575906613,256.43751002335944 437.63750577652854,256.43751002335944 438.41875579399084,256.43751002335944 439.20000581145314,256.43751002335944 439.98125582891544,256.43751002335944 440.76250584637773,256.43751002335944 "
       id="svg_16"
       stroke-dashoffset="" />
    <polyline
       class=""
       style="color:#000000;fill:none;fill-rule:nonzero;stroke:#222222;stroke-width:2;stroke-linejoin:round"
       points="365.76250416999693,240.8125096741135 365.76250416999693,241.5937596915758 365.76250416999693,242.3750097090381 365.76250416999693,243.1562597265004 365.76250416999693,243.9375097439627 365.76250416999693,244.718759761425 365.76250416999693,245.5000097788873 365.76250416999693,246.2812597963496 365.76250416999693,247.0625098138119 365.76250416999693,247.84375983127418 365.76250416999693,248.62500984873648 365.76250416999693,249.40625986619878 366.54375418745923,249.40625986619878 366.54375418745923,250.18750988366108 366.54375418745923,250.96875990112338 367.3250042049215,251.75000991858568 367.3250042049215,252.53125993604797 367.3250042049215,253.31250995351027 367.3250042049215,254.09375997097257 367.3250042049215,254.87500998843487 367.3250042049215,255.65626000589717 367.3250042049215,256.43751002335944 367.3250042049215,257.21876004082173 367.3250042049215,258.00001005828403 366.54375418745923,258.00001005828403 365.76250416999693,258.00001005828403 365.76250416999693,258.78126007574633 364.98125415253463,258.78126007574633 364.20000413507233,258.78126007574633 364.20000413507233,259.56251009320863 363.41875411761004,259.56251009320863 362.63750410014774,259.56251009320863 361.85625408268544,259.56251009320863 361.07500406522314,259.56251009320863 360.29375404776084,259.56251009320863 359.51250403029854,259.56251009320863 358.73125401283625,259.56251009320863 357.95000399537395,260.3437601106709 357.16875397791165,260.3437601106709 356.38750396044935,260.3437601106709 355.60625394298705,260.3437601106709 354.82500392552475,260.3437601106709 354.04375390806246,260.3437601106709 353.26250389060016,260.3437601106709 "
       id="svg_17"
       stroke-dashoffset="" />
    <polyline
       class=""
       style="color:#000000;fill:#ffffff;fill-opacity:1;fill-rule:nonzero;stroke:#222222;stroke-width:2;stroke-linejoin:round"
       points="386.07500462401674,267.3750102678316 386.07500462401674,268.1562602852939 386.07500462401674,268.9375103027562 386.07500462401674,269.7187603202185 386.07500462401674,270.5000103376808 386.07500462401674,271.2812603551431 386.07500462401674,272.0625103726054 386.07500462401674,272.8437603900677 386.07500462401674,273.62501040753 386.07500462401674,274.4062604249923 386.07500462401674,275.1875104424546 386.07500462401674,275.9687604599169 386.07500462401674,276.7500104773792 386.07500462401674,277.5312604948415 386.07500462401674,278.3125105123038 386.07500462401674,279.0937605297661 386.85625464147904,279.0937605297661 387.63750465894134,279.0937605297661 388.41875467640364,279.0937605297661 389.20000469386594,279.0937605297661 389.98125471132823,279.0937605297661 390.76250472879053,279.0937605297661 391.54375474625283,279.0937605297661 392.3250047637151,279.0937605297661 393.1062547811774,279.0937605297661 393.8875047986397,279.0937605297661 394.668754816102,279.0937605297661 395.4500048335643,279.0937605297661 396.2312548510266,279.0937605297661 396.2312548510266,278.3125105123038 396.2312548510266,277.5312604948415 396.2312548510266,276.7500104773792 396.2312548510266,275.9687604599169 396.2312548510266,275.1875104424546 396.2312548510266,274.4062604249923 396.2312548510266,273.62501040753 396.2312548510266,272.8437603900677 396.2312548510266,272.0625103726054 396.2312548510266,271.2812603551431 396.2312548510266,270.5000103376808 396.2312548510266,269.7187603202185 396.2312548510266,268.9375103027562 "
       id="svg_18"
       stroke-dashoffset="" />
    <polyline
       style="color:#000000;fill:none;fill-rule:nonzero;stroke:#222222;stroke-width:2;stroke-linejoin:round"
       points="402.481254990725,273.62501040753 402.481254990725,273.62501040753 "
       id="svg_24"
       stroke-dashoffset="" />
    <polyline
       style="color:#000000;fill:none;fill-rule:nonzero;stroke:#222222;stroke-width:2;stroke-linejoin:round"
       points="404.0437550256496,275.9687604599169 404.0437550256496,275.9687604599169 "
       id="svg_25"
       stroke-dashoffset="" />
    <polyline
       style="color:#000000;fill:none;fill-rule:nonzero;stroke:#222222;stroke-width:2;stroke-linejoin:round"
       points="433.73125568921694,171.2812581199689 432.95000567175464,172.0625081374312 "
       id="svg_29"
       stroke-dashoffset="" />
    <polyline
       style="color:#000000;fill:none;fill-rule:nonzero;stroke:#222222;stroke-width:2;stroke-linejoin:round"
       points="426.70000553205625,161.90625791042132 426.70000553205625,161.90625791042132 "
       id="svg_36"
       stroke-dashoffset="" />
    <polyline
       style="color:#000000;fill:none;fill-rule:nonzero;stroke:#222222;stroke-width:2;stroke-linejoin:round"
       points="427.48125554951855,172.8437581548935 427.48125554951855,172.8437581548935 427.48125554951855,172.8437581548935 426.70000553205625,172.8437581548935 426.70000553205625,172.0625081374312 425.91875551459395,172.0625081374312 425.13750549713166,171.2812581199689 425.13750549713166,170.5000081025066 424.35625547966936,169.7187580850443 424.35625547966936,168.937508067582 424.35625547966936,168.1562580501197 423.57500546220706,168.1562580501197 423.57500546220706,167.3750080326574 423.57500546220706,166.5937580151951 423.57500546220706,165.8125079977328 423.57500546220706,165.0312579802705 423.57500546220706,164.2500079628082 424.35625547966936,164.2500079628082 424.35625547966936,163.4687579453459 425.13750549713166,163.4687579453459 425.13750549713166,162.68750792788362 425.91875551459395,162.68750792788362 426.70000553205625,162.68750792788362 426.70000553205625,161.90625791042132 427.48125554951855,161.90625791042132 "
       id="svg_37"
       stroke-dashoffset="" />
    <polyline
       style="color:#000000;fill:none;fill-rule:nonzero;stroke:#222222;stroke-width:2;stroke-linejoin:round"
       points="361.85625408268544,163.4687579453459 361.85625408268544,163.4687579453459 "
       id="svg_39"
       stroke-dashoffset="" />
    <polyline
       style="color:#000000;fill:none;fill-rule:nonzero;stroke:#222222;stroke-width:2;stroke-linejoin:round"
       points="364.98125415253463,173.6250081723558 364.98125415253463,173.6250081723558 364.98125415253463,173.6250081723558 364.20000413507233,173.6250081723558 364.20000413507233,172.8437581548935 363.41875411761004,172.8437581548935 363.41875411761004,172.0625081374312 362.63750410014774,172.0625081374312 362.63750410014774,171.2812581199689 362.63750410014774,170.5000081025066 362.63750410014774,169.7187580850443 362.63750410014774,168.937508067582 362.63750410014774,168.1562580501197 362.63750410014774,167.3750080326574 362.63750410014774,166.5937580151951 362.63750410014774,165.8125079977328 362.63750410014774,165.0312579802705 362.63750410014774,164.2500079628082 363.41875411761004,164.2500079628082 363.41875411761004,163.4687579453459 363.41875411761004,162.68750792788362 364.20000413507233,162.68750792788362 364.20000413507233,161.90625791042132 364.98125415253463,161.90625791042132 364.98125415253463,161.12500789295902 365.76250416999693,161.12500789295902 366.54375418745923,161.12500789295902 367.3250042049215,161.12500789295902 "
       id="svg_40"
       stroke-dashoffset="" />
    <polyline
       style="color:#000000;fill:none;fill-rule:nonzero;stroke:#222222;stroke-width:2;stroke-linejoin:round"
       points="368.8875042398461,172.0625081374312 368.8875042398461,172.0625081374312 368.8875042398461,172.0625081374312 368.8875042398461,171.2812581199689 368.1062542223838,170.5000081025066 368.1062542223838,169.7187580850443 368.1062542223838,168.937508067582 368.1062542223838,168.1562580501197 368.1062542223838,167.3750080326574 368.1062542223838,166.5937580151951 368.1062542223838,165.8125079977328 368.8875042398461,165.8125079977328 368.8875042398461,165.0312579802705 368.8875042398461,164.2500079628082 369.6687542573084,164.2500079628082 369.6687542573084,163.4687579453459 370.4500042747707,163.4687579453459 371.231254292233,163.4687579453459 372.0125043096953,163.4687579453459 "
       id="svg_41"
       stroke-dashoffset="" />
    <polyline
       style="color:#000000;fill:none;fill-rule:nonzero;stroke:#222222;stroke-width:2;stroke-linejoin:round"
       points="373.5750043446199,173.6250081723558 372.7937543271576,173.6250081723558 372.7937543271576,172.8437581548935 372.7937543271576,172.0625081374312 372.7937543271576,171.2812581199689 372.7937543271576,170.5000081025066 372.7937543271576,169.7187580850443 372.7937543271576,168.937508067582 373.5750043446199,168.937508067582 373.5750043446199,168.1562580501197 374.3562543620822,168.1562580501197 375.1375043795445,167.3750080326574 375.91875439700686,167.3750080326574 375.91875439700686,166.5937580151951 376.70000441446916,166.5937580151951 376.70000441446916,165.8125079977328 377.48125443193146,165.8125079977328 377.48125443193146,165.0312579802705 "
       id="svg_42"
       stroke-dashoffset="" />
    <polyline
       style="color:#000000;fill:none;fill-rule:nonzero;stroke:#222222;stroke-width:2;stroke-linejoin:round"
       points="431.38750563683004,166.5937580151951 431.38750563683004,166.5937580151951 "
       id="svg_43"
       stroke-dashoffset="" />
    <polyline
       style="color:#000000;fill:none;fill-rule:nonzero;stroke:#222222;stroke-width:2;stroke-linejoin:round"
       points="430.60625561936774,172.8437581548935 430.60625561936774,172.8437581548935 430.60625561936774,172.8437581548935 430.60625561936774,172.0625081374312 430.60625561936774,171.2812581199689 430.60625561936774,170.5000081025066 430.60625561936774,169.7187580850443 430.60625561936774,168.937508067582 430.60625561936774,168.1562580501197 430.60625561936774,167.3750080326574 430.60625561936774,166.5937580151951 430.60625561936774,165.8125079977328 430.60625561936774,165.0312579802705 430.60625561936774,164.2500079628082 431.38750563683004,164.2500079628082 431.38750563683004,163.4687579453459 432.16875565429234,163.4687579453459 432.16875565429234,162.68750792788362 432.95000567175464,162.68750792788362 "
       id="svg_44"
       stroke-dashoffset="" />
    <polyline
       style="color:#000000;fill:none;fill-rule:nonzero;stroke:#222222;stroke-width:2;stroke-linejoin:round"
       points="433.73125568921694,174.4062581898181 433.73125568921694,172.8437581548935 433.73125568921694,172.0625081374312 434.51250570667924,171.2812581199689 435.29375572414153,170.5000081025066 435.29375572414153,169.7187580850443 435.29375572414153,168.937508067582 435.29375572414153,168.1562580501197 436.07500574160383,168.1562580501197 436.07500574160383,167.3750080326574 436.85625575906613,167.3750080326574 436.85625575906613,166.5937580151951 437.63750577652854,166.5937580151951 438.41875579399084,166.5937580151951 438.41875579399084,165.8125079977328 "
       id="svg_45"
       stroke-dashoffset="" />
    <polyline
       style="color:#000000;fill:none;fill-rule:nonzero;stroke:#222222;stroke-width:2;stroke-linejoin:round"
       points="372.7937543271576,215.03125909785757 372.7937543271576,215.03125909785757 372.7937543271576,215.03125909785757 372.7937543271576,215.81250911531987 372.0125043096953,215.81250911531987 371.231254292233,215.81250911531987 370.4500042747707,215.81250911531987 369.6687542573084,215.81250911531987 368.8875042398461,215.81250911531987 368.1062542223838,215.81250911531987 367.3250042049215,215.81250911531987 366.54375418745923,215.81250911531987 365.76250416999693,215.81250911531987 364.98125415253463,215.81250911531987 364.20000413507233,215.81250911531987 363.41875411761004,215.81250911531987 362.63750410014774,215.81250911531987 363.41875411761004,215.81250911531987 364.20000413507233,215.81250911531987 364.98125415253463,215.81250911531987 365.76250416999693,215.81250911531987 366.54375418745923,215.81250911531987 367.3250042049215,215.81250911531987 368.1062542223838,215.81250911531987 368.8875042398461,215.81250911531987 369.6687542573084,215.81250911531987 370.4500042747707,216.59375913278217 371.231254292233,216.59375913278217 372.0125043096953,216.59375913278217 372.7937543271576,216.59375913278217 373.5750043446199,216.59375913278217 374.3562543620822,216.59375913278217 373.5750043446199,216.59375913278217 372.7937543271576,216.59375913278217 372.0125043096953,216.59375913278217 371.231254292233,216.59375913278217 370.4500042747707,216.59375913278217 369.6687542573084,216.59375913278217 368.8875042398461,216.59375913278217 368.1062542223838,216.59375913278217 367.3250042049215,216.59375913278217 366.54375418745923,216.59375913278217 365.76250416999693,216.59375913278217 364.98125415253463,216.59375913278217 364.20000413507233,216.59375913278217 364.98125415253463,216.59375913278217 364.98125415253463,217.37500915024447 365.76250416999693,217.37500915024447 366.54375418745923,217.37500915024447 367.3250042049215,217.37500915024447 368.1062542223838,217.37500915024447 368.8875042398461,217.37500915024447 369.6687542573084,217.37500915024447 370.4500042747707,217.37500915024447 371.231254292233,217.37500915024447 372.0125043096953,217.37500915024447 372.7937543271576,217.37500915024447 "
       id="svg_58"
       stroke-dashoffset="" />
    <polyline
       style="color:#000000;fill:none;fill-rule:nonzero;stroke:#222222;stroke-width:2;stroke-linejoin:round"
       points="374.3562543620822,214.25000908039527 374.3562543620822,215.03125909785757 374.3562543620822,215.81250911531987 373.5750043446199,215.81250911531987 373.5750043446199,216.59375913278217 372.7937543271576,216.59375913278217 372.0125043096953,216.59375913278217 371.231254292233,216.59375913278217 370.4500042747707,216.59375913278217 369.6687542573084,216.59375913278217 370.4500042747707,216.59375913278217 371.231254292233,216.59375913278217 372.0125043096953,216.59375913278217 372.7937543271576,216.59375913278217 373.5750043446199,216.59375913278217 374.3562543620822,216.59375913278217 375.1375043795445,216.59375913278217 375.91875439700686,216.59375913278217 375.1375043795445,216.59375913278217 374.3562543620822,216.59375913278217 373.5750043446199,216.59375913278217 372.7937543271576,216.59375913278217 372.0125043096953,216.59375913278217 371.231254292233,216.59375913278217 370.4500042747707,216.59375913278217 369.6687542573084,216.59375913278217 368.8875042398461,216.59375913278217 "
       id="svg_59"
       stroke-dashoffset="" />
    <polyline
       style="color:#000000;fill:none;fill-rule:nonzero;stroke:#222222;stroke-width:2;stroke-linejoin:round"
       points="433.73125568921694,218.15625916770676 432.95000567175464,218.15625916770676 432.16875565429234,218.15625916770676 431.38750563683004,218.15625916770676 430.60625561936774,218.15625916770676 429.82500560190545,218.15625916770676 429.04375558444315,218.15625916770676 428.26250556698085,218.15625916770676 427.48125554951855,218.15625916770676 426.70000553205625,218.15625916770676 425.91875551459395,218.15625916770676 425.13750549713166,218.15625916770676 424.35625547966936,218.15625916770676 423.57500546220706,218.15625916770676 422.79375544474476,218.15625916770676 423.57500546220706,218.15625916770676 424.35625547966936,218.15625916770676 425.13750549713166,218.15625916770676 425.91875551459395,218.15625916770676 426.70000553205625,218.15625916770676 427.48125554951855,218.15625916770676 428.26250556698085,218.15625916770676 429.04375558444315,218.15625916770676 429.82500560190545,218.15625916770676 430.60625561936774,218.15625916770676 431.38750563683004,218.15625916770676 432.16875565429234,218.15625916770676 432.95000567175464,218.15625916770676 433.73125568921694,218.15625916770676 433.73125568921694,218.93750918516906 432.95000567175464,218.93750918516906 432.16875565429234,218.93750918516906 431.38750563683004,218.93750918516906 430.60625561936774,218.93750918516906 429.82500560190545,218.93750918516906 429.04375558444315,218.93750918516906 428.26250556698085,218.93750918516906 427.48125554951855,218.93750918516906 426.70000553205625,218.93750918516906 425.91875551459395,218.93750918516906 425.13750549713166,218.93750918516906 425.91875551459395,218.93750918516906 426.70000553205625,218.93750918516906 427.48125554951855,218.93750918516906 428.26250556698085,218.93750918516906 429.04375558444315,218.93750918516906 429.82500560190545,218.93750918516906 430.60625561936774,218.93750918516906 431.38750563683004,218.93750918516906 432.16875565429234,218.93750918516906 432.95000567175464,218.93750918516906 433.73125568921694,218.93750918516906 432.95000567175464,218.93750918516906 432.16875565429234,218.93750918516906 431.38750563683004,218.93750918516906 430.60625561936774,218.93750918516906 430.60625561936774,219.71875920263136 429.82500560190545,219.71875920263136 429.04375558444315,219.71875920263136 428.26250556698085,219.71875920263136 427.48125554951855,219.71875920263136 426.70000553205625,219.71875920263136 425.91875551459395,219.71875920263136 "
       id="svg_60"
       stroke-dashoffset="" />
    <polyline
       style="color:#000000;fill:none;fill-rule:nonzero;stroke:#222222;stroke-width:2;stroke-linejoin:round"
       points="403.2625050081873,276.75001047737925 403.2625050081873,276.75001047737925 "
       id="svg_61"
       stroke-dashoffset="" />
    <polyline
       style="color:#000000;fill:none;fill-rule:nonzero;stroke:#222222;stroke-width:2;stroke-linejoin:round"
       points="395.4500048335643,276.75001047737925 395.4500048335643,276.75001047737925 "
       id="svg_62"
       stroke-dashoffset="" />
    <polyline
       style="color:#000000;fill:none;fill-rule:nonzero;stroke:#222222;stroke-width:2;stroke-linejoin:round"
       points="400.9187549558004,272.84376039006776 400.9187549558004,272.84376039006776 "
       id="svg_64"
       stroke-dashoffset="" />
    <polyline
       style="color:#000000;fill:none;fill-rule:nonzero;stroke:#222222;stroke-width:2;stroke-linejoin:round"
       points="375.91875439700686,192.37500859145095 375.91875439700686,192.37500859145095 375.91875439700686,193.15625860891325 375.91875439700686,193.15625860891325 375.91875439700686,193.93750862637555 375.91875439700686,194.71875864383784 375.91875439700686,195.50000866130014 "
       id="svg_66"
       stroke-dashoffset="" />
    <polyline
       style="color:#000000;fill:none;fill-rule:nonzero;stroke:#222222;stroke-width:2;stroke-linejoin:round"
       points="376.70000441446916,193.15625860891325 376.70000441446916,193.93750862637555 376.70000441446916,194.71875864383784 376.70000441446916,195.50000866130014 376.70000441446916,196.28125867876244 376.70000441446916,197.06250869622474 "
       id="svg_67"
       stroke-dashoffset="" />
    <polyline
       style="color:#000000;fill:none;fill-rule:nonzero;stroke:#222222;stroke-width:2;stroke-linejoin:round"
       points="399.3562549208758,272.06251037260546 399.3562549208758,272.06251037260546 "
       id="svg_68"
       stroke-dashoffset="" />
    <polyline
       class=""
       style="color:#000000;fill:#ffffff;fill-opacity:1;fill-rule:nonzero;stroke:#222222;stroke-width:2;stroke-linejoin:round"
       points="395.4500048335643,278.31251051230385 395.4500048335643,278.31251051230385 395.4500048335643,278.31251051230385 396.2312548510266,278.31251051230385 397.0125048684889,278.31251051230385 397.7937548859512,278.31251051230385 398.5750049034135,278.31251051230385 398.5750049034135,279.09376052976614 399.3562549208758,279.09376052976614 400.1375049383381,279.09376052976614 400.9187549558004,279.09376052976614 401.7000049732627,279.09376052976614 402.481254990725,279.09376052976614 403.2625050081873,279.09376052976614 404.0437550256496,279.09376052976614 404.8250050431119,279.09376052976614 405.6062550605742,279.09376052976614 406.3875050780365,279.09376052976614 406.3875050780365,278.31251051230385 406.3875050780365,277.53126049484155 406.3875050780365,276.75001047737925 406.3875050780365,275.96876045991695 406.3875050780365,275.18751044245465 406.3875050780365,274.40626042499235 406.3875050780365,273.62501040753006 406.3875050780365,272.84376039006776 406.3875050780365,272.06251037260546 406.3875050780365,271.28126035514316 406.3875050780365,270.50001033768086 406.3875050780365,269.71876032021856 406.3875050780365,268.93751030275627 406.3875050780365,268.15626028529397 405.6062550605742,268.15626028529397 "
       id="svg_69"
       stroke-dashoffset="" />
  </g>
</svg>
